<mxfile host="www.draw.io" modified="2019-12-23T13:50:10.216Z" agent="Mozilla/5.0 (X11; Ubuntu; Linux x86_64; rv:59.0) Gecko/20100101 Firefox/59.0" etag="c5j7gspwuYrMmxq6bGwq" version="12.4.3" type="github" pages="1">
  <diagram name="Page-1" id="e7e014a7-5840-1c2e-5031-d8a46d1fe8dd">
    <mxGraphModel dx="1355" dy="1579" grid="1" gridSize="10" guides="1" tooltips="1" connect="1" arrows="1" fold="1" page="1" pageScale="1" pageWidth="1169" pageHeight="826" background="#ffffff" math="0" shadow="0">
      <root>
        <mxCell id="0"/>
        <mxCell id="1" parent="0"/>
        <mxCell id="2" value="1920" style="swimlane;whiteSpace=wrap;startSize=23;" parent="1" vertex="1">
          <mxGeometry x="200" y="-600" width="240" height="2200" as="geometry"/>
        </mxCell>
        <mxCell id="4Fx-l3T1AfS1Zk8Yr6ho-14" value="" style="endArrow=classic;html=1;fontSize=18;strokeColor=#009900;rounded=1;" edge="1" parent="2">
          <mxGeometry width="50" height="50" relative="1" as="geometry">
            <mxPoint x="119" y="1360" as="sourcePoint"/>
            <mxPoint x="760" y="1720" as="targetPoint"/>
            <Array as="points">
              <mxPoint x="119" y="1640"/>
              <mxPoint x="760" y="1640"/>
            </Array>
          </mxGeometry>
        </mxCell>
        <mxCell id="4Fx-l3T1AfS1Zk8Yr6ho-15" value="Adam" style="text;html=1;align=center;verticalAlign=middle;resizable=0;points=[];;labelBackgroundColor=#ffffff;fontSize=18;" vertex="1" connectable="0" parent="4Fx-l3T1AfS1Zk8Yr6ho-14">
          <mxGeometry x="-0.85" y="3" relative="1" as="geometry">
            <mxPoint x="-2" y="-111" as="offset"/>
          </mxGeometry>
        </mxCell>
        <mxCell id="4Fx-l3T1AfS1Zk8Yr6ho-20" value="Young Noah" style="text;html=1;align=center;verticalAlign=middle;resizable=0;points=[];;autosize=1;fontSize=18;" vertex="1" parent="2">
          <mxGeometry x="-20" y="1240" width="130" height="30" as="geometry"/>
        </mxCell>
        <mxCell id="4Fx-l3T1AfS1Zk8Yr6ho-42" value="" style="endArrow=classic;html=1;strokeColor=#990099;fontSize=18;" edge="1" parent="2">
          <mxGeometry width="50" height="50" relative="1" as="geometry">
            <mxPoint x="80" y="1520" as="sourcePoint"/>
            <mxPoint x="80" y="1740" as="targetPoint"/>
          </mxGeometry>
        </mxCell>
        <mxCell id="4Fx-l3T1AfS1Zk8Yr6ho-43" value="&lt;font style=&quot;font-size: 12px&quot;&gt;Old Magnus and Fraziska&lt;/font&gt;" style="text;html=1;align=center;verticalAlign=middle;resizable=0;points=[];;labelBackgroundColor=#ffffff;fontSize=18;" vertex="1" connectable="0" parent="4Fx-l3T1AfS1Zk8Yr6ho-42">
          <mxGeometry x="0.6091" y="4" relative="1" as="geometry">
            <mxPoint as="offset"/>
          </mxGeometry>
        </mxCell>
        <mxCell id="3" value="1953" style="swimlane;whiteSpace=wrap" parent="1" vertex="1">
          <mxGeometry x="440" y="-600" width="240" height="2200" as="geometry"/>
        </mxCell>
        <mxCell id="4Fx-l3T1AfS1Zk8Yr6ho-37" value="&lt;font style=&quot;font-size: 12px&quot;&gt;Ulrich meets Helge&lt;/font&gt;" style="text;html=1;align=center;verticalAlign=middle;resizable=0;points=[];;autosize=1;fontSize=18;" vertex="1" parent="3">
          <mxGeometry x="50" y="950" width="130" height="30" as="geometry"/>
        </mxCell>
        <mxCell id="4Fx-l3T1AfS1Zk8Yr6ho-36" value="" style="endArrow=classic;html=1;strokeColor=#3333FF;fontSize=18;" edge="1" parent="3">
          <mxGeometry width="50" height="50" relative="1" as="geometry">
            <mxPoint x="40" y="730" as="sourcePoint"/>
            <mxPoint x="40" y="1310" as="targetPoint"/>
            <Array as="points">
              <mxPoint x="40" y="1040"/>
              <mxPoint x="320" y="1040"/>
              <mxPoint x="320" y="1080"/>
              <mxPoint x="40" y="1080"/>
            </Array>
          </mxGeometry>
        </mxCell>
        <mxCell id="4Fx-l3T1AfS1Zk8Yr6ho-38" value="Helge" style="text;html=1;align=center;verticalAlign=middle;resizable=0;points=[];;autosize=1;fontSize=18;" vertex="1" parent="3">
          <mxGeometry x="10" y="686" width="70" height="30" as="geometry"/>
        </mxCell>
        <mxCell id="4Fx-l3T1AfS1Zk8Yr6ho-44" value="&lt;font style=&quot;font-size: 12px&quot;&gt;Ulrich meets HG Tannenbaum&lt;/font&gt;" style="text;html=1;align=center;verticalAlign=middle;resizable=0;points=[];;autosize=1;fontSize=18;" vertex="1" parent="3">
          <mxGeometry x="50" y="970" width="200" height="30" as="geometry"/>
        </mxCell>
        <mxCell id="4" value="1986" style="swimlane;whiteSpace=wrap" parent="1" vertex="1">
          <mxGeometry x="680" y="-600" width="250" height="2200" as="geometry"/>
        </mxCell>
        <mxCell id="4Fx-l3T1AfS1Zk8Yr6ho-9" value="&lt;p style=&quot;line-height: 70%&quot;&gt;&lt;font style=&quot;font-size: 13px ; line-height: 60%&quot;&gt;Jonas meets&lt;/font&gt;&lt;font style=&quot;font-size: 13px ; line-height: 60%&quot;&gt; young Hannah&lt;br&gt;&lt;/font&gt;&lt;/p&gt;&lt;p&gt;&lt;/p&gt;" style="text;html=1;align=center;verticalAlign=middle;resizable=0;points=[];;autosize=1;fontSize=18;" vertex="1" parent="4">
          <mxGeometry x="30" y="790" width="190" height="50" as="geometry"/>
        </mxCell>
        <mxCell id="4Fx-l3T1AfS1Zk8Yr6ho-22" value="" style="endArrow=classic;html=1;strokeColor=#009900;fontSize=18;" edge="1" parent="4">
          <mxGeometry width="50" height="50" relative="1" as="geometry">
            <mxPoint x="80" y="600" as="sourcePoint"/>
            <mxPoint x="320" y="720" as="targetPoint"/>
            <Array as="points">
              <mxPoint x="80" y="720"/>
            </Array>
          </mxGeometry>
        </mxCell>
        <mxCell id="4Fx-l3T1AfS1Zk8Yr6ho-23" value="Mads" style="text;html=1;align=center;verticalAlign=middle;resizable=0;points=[];;autosize=1;fontSize=18;" vertex="1" parent="4">
          <mxGeometry x="40" y="560" width="70" height="30" as="geometry"/>
        </mxCell>
        <mxCell id="4Fx-l3T1AfS1Zk8Yr6ho-26" value="&lt;font style=&quot;font-size: 12px&quot;&gt;Hannah and Jonas go see Mikkel&lt;br&gt;&lt;/font&gt;" style="text;html=1;align=center;verticalAlign=middle;resizable=0;points=[];;autosize=1;fontSize=18;" vertex="1" parent="4">
          <mxGeometry x="20" y="1340" width="220" height="30" as="geometry"/>
        </mxCell>
        <mxCell id="4Fx-l3T1AfS1Zk8Yr6ho-27" value="&lt;font style=&quot;font-size: 12px&quot;&gt;Adult Jonas go see HG Tannenbaum&lt;/font&gt;" style="text;html=1;align=center;verticalAlign=middle;resizable=0;points=[];;autosize=1;fontSize=18;" vertex="1" parent="4">
          <mxGeometry x="10" y="1190" width="240" height="30" as="geometry"/>
        </mxCell>
        <mxCell id="4Fx-l3T1AfS1Zk8Yr6ho-34" value="" style="endArrow=classic;html=1;strokeColor=#FF0000;fontSize=18;" edge="1" parent="4">
          <mxGeometry width="50" height="50" relative="1" as="geometry">
            <mxPoint x="334.5" y="701" as="sourcePoint"/>
            <mxPoint x="-145.5" y="831" as="targetPoint"/>
            <Array as="points">
              <mxPoint x="334.5" y="741"/>
              <mxPoint x="-145.5" y="741"/>
            </Array>
          </mxGeometry>
        </mxCell>
        <mxCell id="4Fx-l3T1AfS1Zk8Yr6ho-39" value="&lt;font style=&quot;font-size: 12px&quot;&gt;Helge sees Jonas through portal&lt;/font&gt;" style="text;html=1;align=center;verticalAlign=middle;resizable=0;points=[];;autosize=1;fontSize=18;" vertex="1" parent="4">
          <mxGeometry x="10" y="1010" width="210" height="30" as="geometry"/>
        </mxCell>
        <mxCell id="G8Sm1e-z4Jg3wYjVNRuD-47" value="2052" style="swimlane;whiteSpace=wrap" parent="1" vertex="1">
          <mxGeometry x="1160" y="-600" width="240" height="2200" as="geometry"/>
        </mxCell>
        <mxCell id="4Fx-l3T1AfS1Zk8Yr6ho-24" value="" style="endArrow=classic;html=1;strokeColor=#FF0000;fontSize=18;" edge="1" parent="G8Sm1e-z4Jg3wYjVNRuD-47">
          <mxGeometry width="50" height="50" relative="1" as="geometry">
            <mxPoint x="120" y="600" as="sourcePoint"/>
            <mxPoint x="-160" y="1840" as="targetPoint"/>
            <Array as="points">
              <mxPoint x="120" y="720"/>
              <mxPoint x="-30" y="720"/>
              <mxPoint x="-30" y="1160"/>
              <mxPoint x="-360" y="1160"/>
              <mxPoint x="-360" y="1240"/>
              <mxPoint x="-40" y="1240"/>
              <mxPoint x="-40" y="1340"/>
              <mxPoint x="-260" y="1340"/>
              <mxPoint x="-260" y="1380"/>
              <mxPoint x="-40" y="1380"/>
              <mxPoint x="-40" y="1840"/>
            </Array>
          </mxGeometry>
        </mxCell>
        <mxCell id="4Fx-l3T1AfS1Zk8Yr6ho-28" value="&lt;font style=&quot;font-size: 12px&quot;&gt;Adult Jonas, Franziska,&lt;br&gt;Magnus and Bartoz &lt;br&gt;travel together&lt;/font&gt;" style="text;html=1;align=center;verticalAlign=middle;resizable=0;points=[];;labelBackgroundColor=#ffffff;fontSize=18;" vertex="1" connectable="0" parent="4Fx-l3T1AfS1Zk8Yr6ho-24">
          <mxGeometry x="0.9754" y="2" relative="1" as="geometry">
            <mxPoint x="13" y="48" as="offset"/>
          </mxGeometry>
        </mxCell>
        <mxCell id="4Fx-l3T1AfS1Zk8Yr6ho-29" value="" style="endArrow=classic;html=1;strokeColor=#FF0000;fontSize=18;" edge="1" parent="G8Sm1e-z4Jg3wYjVNRuD-47">
          <mxGeometry width="50" height="50" relative="1" as="geometry">
            <mxPoint x="80" y="80" as="sourcePoint"/>
            <mxPoint x="-360" y="160" as="targetPoint"/>
            <Array as="points">
              <mxPoint x="80" y="120"/>
              <mxPoint x="-360" y="120"/>
            </Array>
          </mxGeometry>
        </mxCell>
        <mxCell id="4Fx-l3T1AfS1Zk8Yr6ho-30" value="Charlotte" style="text;html=1;align=center;verticalAlign=middle;resizable=0;points=[];;autosize=1;fontSize=18;" vertex="1" parent="G8Sm1e-z4Jg3wYjVNRuD-47">
          <mxGeometry x="30" y="40" width="100" height="30" as="geometry"/>
        </mxCell>
        <mxCell id="G8Sm1e-z4Jg3wYjVNRuD-41" value="2019" style="swimlane;whiteSpace=wrap" parent="1" vertex="1">
          <mxGeometry x="930" y="-600" width="230" height="2200" as="geometry"/>
        </mxCell>
        <mxCell id="G8Sm1e-z4Jg3wYjVNRuD-43" value="" style="elbow=vertical;strokeColor=#FF0000;endArrow=open;endFill=1;rounded=1;" parent="G8Sm1e-z4Jg3wYjVNRuD-41" edge="1">
          <mxGeometry width="100" height="100" relative="1" as="geometry">
            <mxPoint x="120" y="680" as="sourcePoint"/>
            <mxPoint x="120" y="530" as="targetPoint"/>
            <Array as="points">
              <mxPoint x="120" y="800"/>
              <mxPoint x="-120" y="800"/>
              <mxPoint x="-120" y="840"/>
              <mxPoint x="120" y="840"/>
              <mxPoint x="120" y="960"/>
              <mxPoint x="-120" y="960"/>
              <mxPoint x="-120" y="1040"/>
              <mxPoint x="360" y="1040"/>
              <mxPoint x="360" y="1120"/>
              <mxPoint x="-600" y="1120"/>
              <mxPoint x="120" y="220"/>
            </Array>
          </mxGeometry>
        </mxCell>
        <mxCell id="G8Sm1e-z4Jg3wYjVNRuD-52" value="Jonas&lt;br style=&quot;font-size: 18px;&quot;&gt;" style="text;html=1;align=center;verticalAlign=middle;resizable=0;points=[];;labelBackgroundColor=#ffffff;fontSize=18;" parent="G8Sm1e-z4Jg3wYjVNRuD-43" vertex="1" connectable="0">
          <mxGeometry x="0.9383" y="3" relative="1" as="geometry">
            <mxPoint x="-63.00000000000003" y="367.66" as="offset"/>
          </mxGeometry>
        </mxCell>
        <mxCell id="4Fx-l3T1AfS1Zk8Yr6ho-13" value="&lt;font style=&quot;font-size: 12px&quot;&gt;Jonas talks to Mickael&lt;/font&gt;" style="text;html=1;align=center;verticalAlign=middle;resizable=0;points=[];;autosize=1;fontSize=18;" vertex="1" parent="G8Sm1e-z4Jg3wYjVNRuD-41">
          <mxGeometry x="60" y="360" width="150" height="30" as="geometry"/>
        </mxCell>
        <mxCell id="4Fx-l3T1AfS1Zk8Yr6ho-12" value="&lt;font style=&quot;font-size: 12px&quot;&gt;Jonas talks to Martha&lt;/font&gt;" style="text;html=1;align=center;verticalAlign=middle;resizable=0;points=[];;autosize=1;fontSize=18;" vertex="1" parent="G8Sm1e-z4Jg3wYjVNRuD-41">
          <mxGeometry x="50" y="310" width="150" height="30" as="geometry"/>
        </mxCell>
        <mxCell id="4Fx-l3T1AfS1Zk8Yr6ho-17" value="" style="endArrow=classic;html=1;strokeColor=#009900;fontSize=18;" edge="1" parent="G8Sm1e-z4Jg3wYjVNRuD-41">
          <mxGeometry width="50" height="50" relative="1" as="geometry">
            <mxPoint x="80" y="1280" as="sourcePoint"/>
            <mxPoint x="-360" y="1690" as="targetPoint"/>
            <Array as="points">
              <mxPoint x="80" y="1320"/>
              <mxPoint x="-120" y="1320"/>
              <mxPoint x="-120" y="1400"/>
              <mxPoint x="80" y="1400"/>
              <mxPoint x="80" y="1480"/>
              <mxPoint x="-360" y="1480"/>
            </Array>
          </mxGeometry>
        </mxCell>
        <mxCell id="4Fx-l3T1AfS1Zk8Yr6ho-18" value="Hannah" style="text;html=1;align=center;verticalAlign=middle;resizable=0;points=[];;labelBackgroundColor=#ffffff;fontSize=18;" vertex="1" connectable="0" parent="4Fx-l3T1AfS1Zk8Yr6ho-17">
          <mxGeometry x="-0.8667" y="1" relative="1" as="geometry">
            <mxPoint x="33" y="-81" as="offset"/>
          </mxGeometry>
        </mxCell>
        <mxCell id="4Fx-l3T1AfS1Zk8Yr6ho-21" value="&lt;font style=&quot;font-size: 12px&quot;&gt;Noah meets Elisabeth&lt;/font&gt;" style="text;html=1;align=center;verticalAlign=middle;resizable=0;points=[];;autosize=1;fontSize=18;" vertex="1" parent="G8Sm1e-z4Jg3wYjVNRuD-41">
          <mxGeometry x="10" y="1570" width="150" height="30" as="geometry"/>
        </mxCell>
        <mxCell id="4Fx-l3T1AfS1Zk8Yr6ho-4" value="" style="endArrow=classic;html=1;" edge="1" parent="G8Sm1e-z4Jg3wYjVNRuD-41">
          <mxGeometry width="50" height="50" relative="1" as="geometry">
            <mxPoint x="170" y="800" as="sourcePoint"/>
            <mxPoint x="-320" y="1280" as="targetPoint"/>
            <Array as="points">
              <mxPoint x="170" y="920"/>
              <mxPoint x="-320" y="920"/>
            </Array>
          </mxGeometry>
        </mxCell>
        <mxCell id="4Fx-l3T1AfS1Zk8Yr6ho-5" value="&lt;font style=&quot;font-size: 18px&quot;&gt;Ulrich&lt;/font&gt;" style="text;html=1;align=center;verticalAlign=middle;resizable=0;points=[];;labelBackgroundColor=#ffffff;" vertex="1" connectable="0" parent="4Fx-l3T1AfS1Zk8Yr6ho-4">
          <mxGeometry x="0.0708" y="-2" relative="1" as="geometry">
            <mxPoint x="389" y="-138" as="offset"/>
          </mxGeometry>
        </mxCell>
        <mxCell id="4Fx-l3T1AfS1Zk8Yr6ho-33" value="Erik" style="text;html=1;align=center;verticalAlign=middle;resizable=0;points=[];;autosize=1;fontSize=18;" vertex="1" parent="G8Sm1e-z4Jg3wYjVNRuD-41">
          <mxGeometry x="90" y="138" width="50" height="30" as="geometry"/>
        </mxCell>
        <mxCell id="4Fx-l3T1AfS1Zk8Yr6ho-40" value="" style="endArrow=classic;html=1;strokeColor=#990099;fontSize=18;" edge="1" parent="G8Sm1e-z4Jg3wYjVNRuD-41">
          <mxGeometry width="50" height="50" relative="1" as="geometry">
            <mxPoint x="150" y="1520" as="sourcePoint"/>
            <mxPoint x="-330" y="2000" as="targetPoint"/>
            <Array as="points">
              <mxPoint x="150" y="1760"/>
              <mxPoint x="-330" y="1760"/>
            </Array>
          </mxGeometry>
        </mxCell>
        <mxCell id="4Fx-l3T1AfS1Zk8Yr6ho-6" value="" style="endArrow=classic;html=1;" edge="1" parent="1">
          <mxGeometry width="50" height="50" relative="1" as="geometry">
            <mxPoint x="960" as="sourcePoint"/>
            <mxPoint x="880" y="160" as="targetPoint"/>
            <Array as="points">
              <mxPoint x="960" y="80"/>
              <mxPoint x="880" y="80"/>
            </Array>
          </mxGeometry>
        </mxCell>
        <mxCell id="4Fx-l3T1AfS1Zk8Yr6ho-7" value="Mikkel" style="text;html=1;align=center;verticalAlign=middle;resizable=0;points=[];;labelBackgroundColor=#ffffff;fontSize=18;" vertex="1" connectable="0" parent="4Fx-l3T1AfS1Zk8Yr6ho-6">
          <mxGeometry x="0.3333" y="1" relative="1" as="geometry">
            <mxPoint x="10" y="-21" as="offset"/>
          </mxGeometry>
        </mxCell>
        <mxCell id="4Fx-l3T1AfS1Zk8Yr6ho-19" value="" style="endArrow=classic;html=1;strokeColor=#009900;fontSize=18;" edge="1" parent="1">
          <mxGeometry width="50" height="50" relative="1" as="geometry">
            <mxPoint x="240" y="680" as="sourcePoint"/>
            <mxPoint x="1000" y="1070" as="targetPoint"/>
            <Array as="points">
              <mxPoint x="240" y="960"/>
              <mxPoint x="1000" y="960"/>
            </Array>
          </mxGeometry>
        </mxCell>
        <mxCell id="4Fx-l3T1AfS1Zk8Yr6ho-16" value="&lt;font style=&quot;font-size: 12px&quot;&gt;Adam kills Martha&lt;br&gt;&lt;/font&gt;" style="text;html=1;align=center;verticalAlign=middle;resizable=0;points=[];;autosize=1;fontSize=18;" vertex="1" parent="1">
          <mxGeometry x="880" y="1060" width="130" height="30" as="geometry"/>
        </mxCell>
        <mxCell id="4Fx-l3T1AfS1Zk8Yr6ho-25" value="Adult Jonas" style="text;html=1;align=center;verticalAlign=middle;resizable=0;points=[];;autosize=1;fontSize=18;" vertex="1" parent="1">
          <mxGeometry x="1222" y="-28" width="120" height="30" as="geometry"/>
        </mxCell>
        <mxCell id="4Fx-l3T1AfS1Zk8Yr6ho-32" value="" style="endArrow=classic;html=1;strokeColor=#FF0000;fontSize=18;" edge="1" parent="1">
          <mxGeometry width="50" height="50" relative="1" as="geometry">
            <mxPoint x="1040" y="-440" as="sourcePoint"/>
            <mxPoint x="560" y="-80" as="targetPoint"/>
            <Array as="points">
              <mxPoint x="1040" y="-400"/>
              <mxPoint x="760" y="-400"/>
              <mxPoint x="760" y="-320"/>
              <mxPoint x="560" y="-320"/>
            </Array>
          </mxGeometry>
        </mxCell>
        <mxCell id="4Fx-l3T1AfS1Zk8Yr6ho-35" value="Yasin" style="text;html=1;align=center;verticalAlign=middle;resizable=0;points=[];;autosize=1;fontSize=18;" vertex="1" parent="1">
          <mxGeometry x="1025.5" y="90" width="60" height="30" as="geometry"/>
        </mxCell>
        <mxCell id="4Fx-l3T1AfS1Zk8Yr6ho-41" value="&lt;font style=&quot;font-size: 12px&quot;&gt;Old Claudia meets Egon&lt;/font&gt;" style="text;html=1;align=center;verticalAlign=middle;resizable=0;points=[];;autosize=1;fontSize=18;" vertex="1" parent="1">
          <mxGeometry x="503" y="1213" width="160" height="30" as="geometry"/>
        </mxCell>
      </root>
    </mxGraphModel>
  </diagram>
</mxfile>
